<svg id="Layer_3" enable-background="new 0 0 64 64" height="512" viewBox="0 0 64 64" width="512" xmlns="http://www.w3.org/2000/svg"><path d="m12 2h40v30h-40z" fill="#a1cdfb"/><path d="m12 25.376c2.085.405 4.26.624 6.5.624 15.188 0 27.5-9.85 27.5-22 0-.675-.044-1.341-.118-2h-33.882z" fill="#c7e2fc"/><path d="m28 20 9-9 9 9" fill="#669e4f"/><path d="m18 20 9-9 9 9" fill="#78b75b"/><circle cx="32" cy="8" fill="#e39854" r="2"/><path d="m56 37h4v25h-4z" fill="#c18e59"/><circle cx="58" cy="36" fill="#e47c6e" r="4"/><path d="m4 37h4v25h-4z" fill="#c18e59"/><circle cx="6" cy="36" fill="#e47c6e" r="4"/><path d="m1 61h62v2h-62z"/><path d="m6 41c-2.757 0-5-2.243-5-5s2.243-5 5-5 5 2.243 5 5-2.243 5-5 5zm0-8c-1.654 0-3 1.346-3 3s1.346 3 3 3 3-1.346 3-3-1.346-3-3-3z"/><path d="m3 39h2v23h-2z"/><path d="m7 39h2v23h-2z"/><path d="m58 41c-2.757 0-5-2.243-5-5s2.243-5 5-5 5 2.243 5 5-2.243 5-5 5zm0-8c-1.654 0-3 1.346-3 3s1.346 3 3 3 3-1.346 3-3-1.346-3-3-3z"/><path d="m55 39h2v23h-2z"/><path d="m59 39h2v23h-2z"/><path d="m33.258 52h-1.675c-8.93 0-17.329-3.935-23.047-10.794l-1.305-1.565 1.537-1.281 1.305 1.565c5.336 6.403 13.176 10.075 21.51 10.075h1.675c8.432 0 16.331-3.743 21.67-10.269l.298-.364 1.549 1.266-.298.364c-5.722 6.993-14.185 11.003-23.219 11.003z"/><path d="m52 33h-40c-.553 0-1-.448-1-1v-30c0-.552.447-1 1-1h40c.553 0 1 .448 1 1v30c0 .552-.447 1-1 1zm-39-2h38v-28h-38z"/><path d="m15 19h34v2h-34z"/><path d="m35.293 20.707-8.293-8.293-8.293 8.293-1.414-1.414 9-9c.391-.391 1.023-.391 1.414 0l9 9z"/><path d="m45.293 20.707-8.293-8.293-4.293 4.293-1.414-1.414 5-5c.391-.391 1.023-.391 1.414 0l9 9z"/><path d="m32 11c-1.654 0-3-1.346-3-3s1.346-3 3-3 3 1.346 3 3-1.346 3-3 3zm0-4c-.552 0-1 .449-1 1s.448 1 1 1 1-.449 1-1-.448-1-1-1z"/><path d="m21 23h22v2h-22z"/><path d="m27 27h10v2h-10z"/></svg>