<?xml version="1.0" encoding="utf-8"?>
<!-- Generator: Adobe Illustrator 16.0.0, SVG Export Plug-In . SVG Version: 6.00 Build 0)  -->
<!DOCTYPE svg PUBLIC "-//W3C//DTD SVG 1.1//EN" "http://www.w3.org/Graphics/SVG/1.1/DTD/svg11.dtd">
<svg version="1.1" xmlns="http://www.w3.org/2000/svg" xmlns:xlink="http://www.w3.org/1999/xlink" x="0px" y="0px"
	 width="404.0151367px" height="250px" viewBox="0 0 404.0151367 250" enable-background="new 0 0 404.0151367 250"
	 xml:space="preserve">
<g id="Layer_1">
</g>
<g id="Layer_2">
	<g>
		<g>
			<path fill="#E5493F" d="M338.3608398,125.6938477c6.2255859,0.3300781,12.4501953,0.6826172,18.6738281,1.0581055
				c6.3144531-12.7905273,12.6279297-25.5576172,18.9394531-38.3017578c0,34.9555664,0,69.9111328,0,104.8662109
				c9.3496094,0.6337891,18.6972656,1.3183594,28.0410156,2.0527344c0-56.203125,0-112.40625,0-168.609375
				c-9.5517578-0.7514648-19.1064453-1.4501953-28.6650391-2.0952148
				c-9.1992188,18.5410156-18.4013672,37.1313477-27.6054688,55.7709961
				c-9.2353516-19.6850586-18.4716797-39.3203125-27.7099609-58.9057617
				c-9.5664063-0.4394531-19.1337891-0.824707-28.703125-1.1572266c0,46.9379883,0,93.8754883,0,140.8129883
				c9.3603516,0.3242188,18.71875,0.7011719,28.0751953,1.1279297c0-25.6904297,0-51.3798828,0-77.0693359
				C325.7260742,98.7041016,332.0444336,112.1870117,338.3608398,125.6938477z"/>
			<path fill="#E5493F" d="M338.3608398,125.6938477c6.2255859,0.3300781,12.4501953,0.6826172,18.6738281,1.0581055
				c6.3144531-12.7905273,12.6279297-25.5576172,18.9394531-38.3017578c0,34.9555664,0,69.9111328,0,104.8662109
				c9.3496094,0.6337891,18.6972656,1.3183594,28.0410156,2.0527344c0-56.203125,0-112.40625,0-168.609375
				c-9.5517578-0.7514648-19.1064453-1.4501953-28.6650391-2.0952148
				c-9.1992188,18.5410156-18.4013672,37.1313477-27.6054688,55.7709961
				c-9.2353516-19.6850586-18.4716797-39.3203125-27.7099609-58.9057617
				c-9.5664063-0.4394531-19.1337891-0.824707-28.703125-1.1572266c0,46.9379883,0,93.8754883,0,140.8129883
				c9.3603516,0.3242188,18.71875,0.7011719,28.0751953,1.1279297c0-25.6904297,0-51.3798828,0-77.0693359
				C325.7260742,98.7041016,332.0444336,112.1870117,338.3608398,125.6938477z"/>
			<path fill="#E5493F" d="M197.3100586,18.8271484c0,46.9375,0,93.875,0,140.8125
				c28.1845703-0.0507813,56.3691406,0.359375,84.5439453,1.234375c0-9.3583984,0-18.7177734,0-28.0751953
				c-18.8134766-0.5849609-37.6318359-0.9619141-56.4501953-1.1328125c0-9.4179688,0-18.8354492,0-28.253418
				c15.6582031,0.1425781,31.3154297,0.4272461,46.96875,0.8554688c0-9.355957,0-18.7124023,0-28.0683594
				c-15.6533203-0.4282227-31.3105469-0.7128906-46.96875-0.8554688c0-9.4477539,0-18.8959961,0-28.34375
				c18.8183594,0.1708984,37.6367188,0.5488281,56.4501953,1.1323242c0-9.3574219,0-18.7143555,0-28.0712891
				C253.6791992,19.1870117,225.4946289,18.7758789,197.3100586,18.8271484z"/>
			<path fill="#E5493F" d="M197.3100586,18.8271484c0,46.9375,0,93.875,0,140.8125
				c28.1845703-0.0507813,56.3691406,0.359375,84.5439453,1.234375c0-9.3583984,0-18.7177734,0-28.0751953
				c-18.8134766-0.5849609-37.6318359-0.9619141-56.4501953-1.1328125c0-9.4179688,0-18.8354492,0-28.253418
				c15.6582031,0.1425781,31.3154297,0.4272461,46.96875,0.8554688c0-9.355957,0-18.7124023,0-28.0683594
				c-15.6533203-0.4282227-31.3105469-0.7128906-46.96875-0.8554688c0-9.4477539,0-18.8959961,0-28.34375
				c18.8183594,0.1708984,37.6367188,0.5488281,56.4501953,1.1323242c0-9.3574219,0-18.7143555,0-28.0712891
				C253.6791992,19.1870117,225.4946289,18.7758789,197.3100586,18.8271484z"/>
			<path fill="#E5493F" d="M159.105957,159.9931641c9.5732422-0.1601563,19.1464844-0.265625,28.7202148-0.3183594
				c0-53.2250977,0-106.4501953,0-159.6748047c-9.3666992,0.0517578-18.7329102,0.1542969-28.0981445,0.3081055
				c0,31.9775391,0,63.9545898,0,95.9321289c-12.3754883-25.4868164-24.7495117-50.8842773-37.121582-76.1923828
				c-9.5693359,0.2949219-19.1376953,0.6435547-28.7041016,1.0458984c0,46.9370117,0,93.875,0,140.8125
				c9.3574219-0.3935547,18.7163086-0.7353516,28.0766602-1.0263672c0-25.6904297,0-51.3798828,0-77.0698242
				C134.3530273,109.1152344,146.7290039,134.5087891,159.105957,159.9931641z"/>
			<path fill="#E5493F" d="M159.105957,159.9931641c9.5732422-0.1601563,19.1464844-0.265625,28.7202148-0.3183594
				c0-53.2250977,0-106.4501953,0-159.6748047c-9.3666992,0.0517578-18.7329102,0.1542969-28.0981445,0.3081055
				c0,31.9775391,0,63.9545898,0,95.9321289c-12.3754883-25.4868164-24.7495117-50.8842773-37.121582-76.1923828
				c-9.5693359,0.2949219-19.1376953,0.6435547-28.7041016,1.0458984c0,46.9370117,0,93.875,0,140.8125
				c9.3574219-0.3935547,18.7163086-0.7353516,28.0766602-1.0263672c0-25.6904297,0-51.3798828,0-77.0698242
				C134.3530273,109.1152344,146.7290039,134.5087891,159.105957,159.9931641z"/>
			<path fill="#E5493F" d="M0,26.7597656C0,82.934082,0,139.1083984,0,195.2832031
				c28.1181641-2.2138672,56.2641602-3.9638672,84.425293-5.2509766c0-9.3544922,0-18.7089844,0-28.0634766
				c-18.8041992,0.859375-37.6015625,1.9257813-56.3881836,3.1982422c0-15.9755859,0-31.9521484,0-47.9277344
				c15.6318359-1.0585938,31.2709961-1.9741211,46.9145508-2.7470703c0-9.3579102,0-18.715332,0-28.0732422
				c-15.644043,0.7729492-31.2827148,1.6884766-46.9145508,2.7470703c0-12.1289063,0-24.2578125,0-36.387207
				c18.7866211-1.2724609,37.5839844-2.3383789,56.3881836-3.1982422c0-9.3569336,0-18.7143555,0-28.0712891
				C56.2641602,22.796875,28.1181641,24.546875,0,26.7597656z"/>
			<path fill="#E5493F" d="M0,26.7597656C0,82.934082,0,139.1083984,0,195.2832031
				c28.1181641-2.2138672,56.2641602-3.9638672,84.425293-5.2509766c0-9.3544922,0-18.7089844,0-28.0634766
				c-18.8041992,0.859375-37.6015625,1.9257813-56.3881836,3.1982422c0-15.9755859,0-31.9521484,0-47.9277344
				c15.6318359-1.0585938,31.2709961-1.9741211,46.9145508-2.7470703c0-9.3579102,0-18.715332,0-28.0732422
				c-15.644043,0.7729492-31.2827148,1.6884766-46.9145508,2.7470703c0-12.1289063,0-24.2578125,0-36.387207
				c18.7866211-1.2724609,37.5839844-2.3383789,56.3881836-3.1982422c0-9.3569336,0-18.7143555,0-28.0712891
				C56.2641602,22.796875,28.1181641,24.546875,0,26.7597656z"/>
			<path fill="#F05023" d="M338.3608398,125.6938477c6.2255859,0.3300781,12.4501953,0.6826172,18.6738281,1.0581055
				c6.3144531-12.7905273,12.6279297-25.5576172,18.9394531-38.3017578c0,34.9555664,0,69.9111328,0,104.8662109
				c9.3496094,0.6337891,18.6972656,1.3183594,28.0410156,2.0527344c0-56.203125,0-112.40625,0-168.609375
				c-9.5517578-0.7514648-19.1064453-1.4501953-28.6650391-2.0952148
				c-9.1992188,18.5410156-18.4013672,37.1313477-27.6054688,55.7709961
				c-9.2353516-19.6850586-18.4716797-39.3203125-27.7099609-58.9057617
				c-9.5664063-0.4394531-19.1337891-0.824707-28.703125-1.1572266c0,46.9379883,0,93.8754883,0,140.8129883
				c9.3603516,0.3242188,18.71875,0.7011719,28.0751953,1.1279297c0-25.6904297,0-51.3798828,0-77.0693359
				C325.7260742,98.7041016,332.0444336,112.1870117,338.3608398,125.6938477z"/>
			<path fill="#F05023" d="M197.3100586,18.8271484c0,46.9375,0,93.875,0,140.8125
				c28.1845703-0.0507813,56.3691406,0.359375,84.5439453,1.234375c0-9.3583984,0-18.7177734,0-28.0751953
				c-18.8134766-0.5849609-37.6318359-0.9619141-56.4501953-1.1328125c0-9.4179688,0-18.8354492,0-28.253418
				c15.6582031,0.1425781,31.3154297,0.4272461,46.96875,0.8554688c0-9.355957,0-18.7124023,0-28.0683594
				c-15.6533203-0.4282227-31.3105469-0.7128906-46.96875-0.8554688c0-9.4477539,0-18.8959961,0-28.34375
				c18.8183594,0.1708984,37.6367188,0.5488281,56.4501953,1.1323242c0-9.3574219,0-18.7143555,0-28.0712891
				C253.6791992,19.1870117,225.4946289,18.7758789,197.3100586,18.8271484z"/>
			<path fill="#F05023" d="M159.105957,159.9931641c9.5732422-0.1601563,19.1464844-0.265625,28.7202148-0.3183594
				c0-53.2250977,0-106.4501953,0-159.6748047c-9.3666992,0.0517578-18.7329102,0.1542969-28.0981445,0.3081055
				c0,31.9775391,0,63.9545898,0,95.9321289c-12.3754883-25.4868164-24.7495117-50.8842773-37.121582-76.1923828
				c-9.5693359,0.2949219-19.1376953,0.6435547-28.7041016,1.0458984c0,46.9370117,0,93.875,0,140.8125
				c9.3574219-0.3935547,18.7163086-0.7353516,28.0766602-1.0263672c0-25.6904297,0-51.3798828,0-77.0698242
				C134.3530273,109.1152344,146.7290039,134.5087891,159.105957,159.9931641z"/>
			<path fill="#F05023" d="M0,26.7597656C0,82.934082,0,139.1083984,0,195.2832031
				c28.1181641-2.2138672,56.2641602-3.9638672,84.425293-5.2509766c0-9.3544922,0-18.7089844,0-28.0634766
				c-18.8041992,0.859375-37.6015625,1.9257813-56.3881836,3.1982422c0-15.9755859,0-31.9521484,0-47.9277344
				c15.6318359-1.0585938,31.2709961-1.9741211,46.9145508-2.7470703c0-9.3579102,0-18.715332,0-28.0732422
				c-15.644043,0.7729492-31.2827148,1.6884766-46.9145508,2.7470703c0-12.1289063,0-24.2578125,0-36.387207
				c18.7866211-1.2724609,37.5839844-2.3383789,56.3881836-3.1982422c0-9.3569336,0-18.7143555,0-28.0712891
				C56.2641602,22.796875,28.1181641,24.546875,0,26.7597656z"/>
		</g>
		<g>
			<path fill="#FFFFFF" d="M118.9267578,182.8486328c0,21.3046875,0,42.609375,0,63.9140625
				c4.25,0.3339844,8.5009766,0.6425781,12.7539063,0.9257813c0-8.5126953,0-17.0253906,0-25.5380859
				c8.5048828,0.5654297,17.0146484,1.0263672,25.5283203,1.3847656c0-4.2587891,0-8.5166016,0-12.7753906
				c-8.5136719-0.3574219-17.0234375-0.8193359-25.5283203-1.3837891c0-4.2773438,0-8.5546875,0-12.8320313
				c8.5048828,0.5654297,17.0146484,1.0263672,25.5283203,1.3837891c0-4.2558594,0-8.5117188,0-12.7685547
				C144.4389648,184.6220703,131.6762695,183.8525391,118.9267578,182.8486328z"/>
			<path fill="#FFFFFF" d="M167.5004883,249.4550781c12.7744141,0.4121094,25.5551758,0.5898438,38.3339844,0.5351563
				c0-4.2568359,0-8.5126953,0-12.7695313c-8.5429688,0.0371094-17.0864258-0.03125-25.628418-0.2021484
				c0-17.0478516,0-34.0966797,0-51.1445313c-4.2358398-0.0849609-8.4711914-0.1962891-12.7055664-0.3320313
				C167.5004883,206.8457031,167.5004883,228.1503906,167.5004883,249.4550781z"/>
			<path fill="#FFFFFF" d="M228.8364258,185.7265625c-4.2597656,0.1113281-8.5185547,0.1972656-12.7773438,0.2568359
				c0,21.3037109,0,42.6083984,0,63.9130859c4.2587891-0.0595703,8.5175781-0.1455078,12.7773438-0.2568359
				C228.8364258,228.3359375,228.8364258,207.0302734,228.8364258,185.7265625z"/>
			<path fill="#FFFFFF" d="M283.7290039,182.8486328c-4.7851563,0.3769531-9.5732422,0.7207031-14.3623047,1.03125
				c-2.9697266,6.1083984-5.9394531,12.2041016-8.9101563,18.2861328
				c-2.9443359-5.7490234-5.890625-11.5107422-8.8359375-17.2841797c-4.7949219,0.2294922-9.5908203,0.4267578-14.3886719,0.5908203
				c5.3583984,10.4794922,10.7148438,20.9179688,16.0703125,31.3154297
				c-5.3554688,10.9072266-10.7119141,21.7734375-16.0703125,32.5976563
				c4.7978516-0.1640625,9.59375-0.3603516,14.3886719-0.5908203c2.9453125-6.0351563,5.8916016-12.0820313,8.8359375-18.1425781
				c2.9707031,5.7265625,5.9404297,11.4404297,8.9101563,17.140625c4.7890625-0.3105469,9.5771484-0.6542969,14.3623047-1.0302734
				c-5.3466797-10.2207031-10.6962891-20.4833984-16.0478516-30.7851563
				C273.0327148,204.9755859,278.3823242,193.9326172,283.7290039,182.8486328z"/>
		</g>
	</g>
	<g>
	</g>
	<g>
	</g>
	<g>
	</g>
	<g>
	</g>
	<g>
	</g>
	<g>
	</g>
</g>
</svg>
