<svg height="512pt" viewBox="-43 0 511 512" width="512pt" xmlns="http://www.w3.org/2000/svg"><path d="m256.5 0c-17.003906 0-32.4375 6.839844-43.707031 17.90625-11.269531-11.066406-26.703125-17.90625-43.707031-17.90625-34.429688 0-62.4375 28.011719-62.4375 62.4375 0 34.429688 28.007812 62.441406 62.4375 62.441406 17.003906 0 32.4375-6.84375 43.707031-17.90625 11.269531 11.0625 26.703125 17.90625 43.707031 17.90625 34.429688 0 62.4375-28.011718 62.4375-62.441406 0-34.425781-28.007812-62.4375-62.4375-62.4375zm-87.414062 87.414062c-13.769532 0-24.976563-11.203124-24.976563-24.976562 0-13.769531 11.203125-24.972656 24.976563-24.972656 13.769531 0 24.976562 11.203125 24.976562 24.972656 0 13.773438-11.207031 24.976562-24.976562 24.976562zm87.414062 0c-13.769531 0-24.976562-11.203124-24.976562-24.976562 0-13.769531 11.203124-24.972656 24.976562-24.972656s24.976562 11.203125 24.976562 24.972656c0 13.773438-11.203124 24.976562-24.976562 24.976562zm0 0" fill="#8db0ff"/><path d="m425.085938 463.933594v37.660156c0 5.746094-4.660157 10.40625-10.40625 10.40625h-403.773438c-5.746094 0-10.40625-4.660156-10.40625-10.40625v-37.660156c0-37.402344 24.933594-70.214844 60.972656-80.214844l86.144532-23.933594c1.820312-.5 3.695312-.761718 5.578124-.761718h119.195313c1.882813 0 3.757813.261718 5.578125.761718l86.144531 23.933594c36.039063 10 60.972657 42.8125 60.972657 80.214844zm0 0" fill="#ff933b"/><path d="m364.113281 383.714844-26.601562-7.390625c30.082031 13.039062 50.109375 42.851562 50.109375 76.359375v59.316406h27.058594c5.746093 0 10.40625-4.660156 10.40625-10.40625v-37.664062c0-37.398438-24.9375-70.207032-60.972657-80.214844zm0 0" fill="#f27d27"/><path d="m212.792969 429.789062c38.25 0 69.488281-30.511718 70.707031-68.46875l-5.535156-1.535156c-1.8125-.503906-3.6875-.761718-5.570313-.761718h-119.203125c-1.882812 0-3.757812.257812-5.570312.761718l-5.535156 1.535156c1.21875 37.957032 32.457031 68.46875 70.707031 68.46875zm0 0" fill="#f27d27"/><path d="m250.257812 315.664062v43.359376c0 20.691406-16.773437 37.464843-37.464843 37.464843-20.691407 0-37.464844-16.773437-37.464844-37.464843v-43.359376zm0 0" fill="#f9b3a7"/><path d="m194.0625 62.4375c0-17.421875 7.179688-33.191406 18.726562-44.53125-4.503906-4.417969-9.675781-8.164062-15.347656-11.066406-8.59375 9.121094-15.101562 20.222656-18.757812 32.542968 9.019531 3.769532 15.378906 12.683594 15.378906 23.054688zm0 0" fill="#669af7"/><path d="m231.523438 62.4375c0 17.425781-7.179688 33.195312-18.726563 44.53125 4.503906 4.421875 9.675781 8.167969 15.347656 11.070312 8.59375-9.125 15.101563-20.222656 18.757813-32.546874-9.019532-3.769532-15.378906-12.679688-15.378906-23.054688zm0 0" fill="#669af7"/><path d="m310.613281 201.886719v-44.75h16.652344c5.746094 0 10.40625 4.660156 10.40625 10.40625v34.34375zm0 0" fill="#ffd664"/><path d="m114.972656 201.886719v-44.75h-16.652344c-5.746093 0-10.40625 4.660156-10.40625 10.40625v34.34375zm0 0" fill="#ffd664"/><path d="m99.363281 247.675781h20.8125v-56.195312h-20.8125c-11.496093 0-20.8125 9.316406-20.8125 20.8125v14.570312c0 11.492188 9.316407 20.8125 20.8125 20.8125zm0 0" fill="#feccc1"/><path d="m326.222656 247.675781h-20.8125v-56.195312h20.8125c11.496094 0 20.8125 9.316406 20.8125 20.8125v14.570312c0 11.492188-9.316406 20.8125-20.8125 20.8125zm0 0" fill="#f9b3a7"/><path d="m212.792969 157.136719h-97.820313v74.929687c0 54.023438 43.796875 97.820313 97.820313 97.820313 54.023437 0 97.820312-43.796875 97.820312-97.820313v-74.929687zm0 0" fill="#feccc1"/><path d="m281.476562 157.136719v74.929687c0 49.074219-36.136718 89.703125-83.253906 96.738282 4.753906.710937 9.621094 1.082031 14.570313 1.082031 54.023437 0 97.820312-43.796875 97.820312-97.820313v-74.929687zm0 0" fill="#f9b3a7"/><path d="m256.5 0c-2.464844 0-4.894531.160156-7.285156.4375 31.007812 3.621094 55.15625 30.039062 55.15625 62 0 31.964844-24.148438 58.378906-55.15625 62 2.390625.28125 4.820312.441406 7.285156.441406 34.429688 0 62.4375-28.011718 62.4375-62.441406 0-34.425781-28.007812-62.4375-62.4375-62.4375zm0 0" fill="#669af7"/><g fill="#f27d27"><path d="m349.640625 473.496094v38.503906h-15.613281v-38.503906c0-4.308594 3.496094-7.804688 7.808594-7.804688 4.308593 0 7.804687 3.496094 7.804687 7.804688zm0 0"/><path d="m91.558594 473.496094v38.503906h-15.613282v-38.503906c0-4.308594 3.5-7.804688 7.808594-7.804688s7.804688 3.496094 7.804688 7.804688zm0 0"/></g></svg>