<?xml version="1.0" encoding="iso-8859-1"?>
<!-- Generator: Adobe Illustrator 19.0.0, SVG Export Plug-In . SVG Version: 6.00 Build 0)  -->
<svg version="1.1" id="Capa_1" xmlns="http://www.w3.org/2000/svg" xmlns:xlink="http://www.w3.org/1999/xlink" x="0px" y="0px"
	 viewBox="0 0 496.485 496.485" style="enable-background:new 0 0 496.485 496.485;" xml:space="preserve">
<circle style="fill:#FDBF5E;" cx="247.416" cy="248.242" r="244.364"/>
<path style="fill:#193651;" d="M68.216,494.933l-0.776-15.515c4.655,0,9.309-0.776,13.964-1.552l2.327,14.739
	C79.077,493.382,73.647,494.158,68.216,494.933z M51.925,494.158c-6.206-0.776-11.636-2.327-17.067-4.655l6.206-13.964
	c3.879,1.552,7.758,2.327,13.188,3.103L51.925,494.158z M100.022,489.503l-3.879-14.739c4.655-1.552,9.309-2.327,13.964-4.655
	l4.655,14.739C110.107,486.4,105.453,487.952,100.022,489.503z M20.119,480.194l-0.776-0.776
	c-3.879-3.879-7.758-8.533-10.085-13.964l13.964-6.206c1.552,3.879,3.879,6.982,6.206,9.309l0.776,0.776L20.119,480.194z
	 M130.277,479.418l-6.206-14.739c4.655-1.552,9.309-3.879,13.964-6.206l6.206,13.964
	C139.586,474.764,134.932,477.091,130.277,479.418z M4.604,449.164c-0.776-4.655-0.776-9.309-0.776-13.964v-2.327h15.515v2.327
	c0,3.879,0,7.758,0.776,11.636L4.604,449.164z M20.119,418.133L5.38,415.806c0.776-4.655,1.552-10.085,3.103-15.515l14.739,3.879
	C21.671,408.824,20.119,414.255,20.119,418.133z M27.101,390.206l-14.739-4.655c1.552-5.43,3.103-10.085,5.43-14.739l13.964,5.43
	C30.204,380.897,28.653,385.552,27.101,390.206z M37.962,362.279l-13.964-6.206c2.327-4.655,4.655-9.309,6.982-13.964l13.188,6.982
	C41.841,353.745,39.513,358.4,37.962,362.279z M51.15,335.903l-13.188-6.982c2.327-4.655,4.655-9.309,7.758-13.188l13.188,7.758
	C55.804,327.37,53.477,331.249,51.15,335.903z M66.665,309.527l-13.188-7.758c2.327-4.655,5.43-8.533,8.533-13.188l12.412,8.533
	C72.095,300.994,68.992,305.648,66.665,309.527z"/>
<circle style="fill:#FFFFFF;" cx="247.416" cy="248.242" r="185.406"/>
<path style="fill:#193651;" d="M247.416,441.406L247.416,441.406c-106.279,0-193.164-86.885-193.164-193.164
	S141.138,55.079,247.416,55.079S440.58,141.964,440.58,248.242S354.471,441.406,247.416,441.406z M247.416,70.594
	c-97.745,0-177.648,79.903-177.648,177.648s79.903,177.648,177.648,177.648s177.648-79.903,177.648-177.648
	C425.841,150.497,345.938,70.594,247.416,70.594z"/>
<ellipse style="fill:#E1E6E9;" cx="247.673" cy="248.478" rx="156.71" ry="156.71"/>
<g>
	<path style="fill:#2EA2DB;" d="M263.707,275.394c0,0,4.655-7.758-20.945-7.758c0,0-6.206,3.879-7.758-15.515h-7.758
		c0,0-5.43-14.739-12.412-8.533c0,0-4.655,4.655-10.861-4.655c0,0-17.067-4.655-17.842,19.394c0,0-21.721,13.964,4.655,34.133
		l12.412,10.085l-1.552,23.273c0,0,6.206,0.776,3.103,10.861c0,0,8.533,7.758,1.552,22.497c0,0,7.758,24.048,23.273,16.291
		l-4.655-5.43l2.327-10.085h-6.982l5.43-10.085l-4.655-3.879c0,0,26.376-0.776,27.152-24.048c0,0-11.636-11.636,7.758-9.309
		c0,0,9.309,0,8.533-20.945c0,0,7.758-7.758,6.982-11.636C269.913,275.394,263.707,275.394,263.707,275.394z"/>
	<path style="fill:#2EA2DB;" d="M390.932,186.182c-13.964,1.552-9.309,20.945-9.309,20.945c-6.206,12.412-22.497-6.982-22.497-6.982
		c-6.206,13.188-20.945-0.776-20.945-0.776c-35.685-18.618-42.667,14.739-42.667,14.739C276.895,231.176,294.738,256,294.738,256
		c10.861,15.515,26.376-4.655,26.376-4.655c10.085,13.188,17.842,10.085,17.842,10.085s0,0-1.552,7.758
		c-1.552,7.758,11.636,17.067,11.636,20.945s-18.618,13.964-4.655,26.376c13.188,12.412,6.982,20.945,6.982,20.945
		s10.085,9.309,15.515,13.964c23.273-26.376,37.236-61.285,38.012-99.297C404.895,228.073,400.241,205.576,390.932,186.182z"/>
	<path style="fill:#2EA2DB;" d="M130.277,216.436c0,0,0,0,7.758,16.291c7.758,16.291,18.618-3.103,15.515-10.861
		c-3.103-8.533,3.879-20.945,23.273-15.515c18.618,4.655,10.861-3.103,27.152-24.048s26.376-3.879,31.806-16.291
		s9.309-35.685-10.085-21.721s-17.067,7.758,0-13.964c17.842-21.721-11.636,3.879-41.115,2.327
		c-13.188-0.776-17.067-9.309-18.618-18.618c-15.515,9.309-28.703,20.945-40.339,34.909c-3.103,8.533-5.43,19.394-10.085,35.685
		C110.107,211.006,130.277,216.436,130.277,216.436z"/>
</g>
<path style="fill:#193651;" d="M141.138,473.212c-3.103,0-5.43-1.552-6.982-4.655c-1.552-3.879,0-8.533,3.879-10.085
	c57.406-26.376,122.57-75.248,183.855-135.758c130.327-130.327,180.752-256,145.067-291.685
	c-24.824-24.824-91.539-7.758-169.115,43.442c-3.879,2.327-8.533,1.552-10.861-2.327c-2.327-3.879-1.552-8.533,2.327-10.861
	c86.885-57.406,157.479-72.921,188.509-41.891c47.321,47.321-16.291,184.63-145.067,313.406
	c-62.061,62.061-128.776,111.709-188.509,138.861C143.465,473.212,141.913,473.212,141.138,473.212z"/>
<g>
	<circle style="fill:#F16051;" cx="132.604" cy="467.006" r="29.479"/>
	<circle style="fill:#F16051;" cx="363.004" cy="29.479" r="29.479"/>
</g>
<g>
</g>
<g>
</g>
<g>
</g>
<g>
</g>
<g>
</g>
<g>
</g>
<g>
</g>
<g>
</g>
<g>
</g>
<g>
</g>
<g>
</g>
<g>
</g>
<g>
</g>
<g>
</g>
<g>
</g>
</svg>
