<svg viewBox="0 0 512 512" xmlns="http://www.w3.org/2000/svg" xmlns:xlink="http://www.w3.org/1999/xlink"><linearGradient id="a" gradientTransform="matrix(1 0 0 -1 0 -13734)" gradientUnits="userSpaceOnUse" x1="0" x2="512" y1="-13990" y2="-13990"><stop offset="0" stop-color="#00f1ff"/><stop offset=".231" stop-color="#00d8ff"/><stop offset=".5138" stop-color="#00c0ff"/><stop offset=".7773" stop-color="#00b2ff"/><stop offset="1" stop-color="#00adff"/></linearGradient><path d="m512 256c0 141.386719-114.613281 256-256 256s-256-114.613281-256-256 114.613281-256 256-256 256 114.613281 256 256zm0 0" fill="url(#a)"/><path d="m408.5 386.5h-27.648438v-37.339844c0-8.285156-6.714843-15-15-15h-69.003906v-170.964844h19.109375v121.34375c0 8.285157 6.71875 15 15 15 8.285157 0 15-6.714843 15-15v-71.125c3.457031.953126 7.09375 1.476563 10.847657 1.476563 36.777343 0 66.695312-29.921875 66.695312-66.695313 0-36.777343-29.917969-66.695312-66.695312-66.695312h-201.609376c-36.777343 0-66.695312 29.917969-66.695312 66.695312 0 36.777344 29.917969 66.695313 66.695312 66.695313 3.753907 0 7.390626-.519531 10.847657-1.472656v120.742187h-19.894531c-8.285157 0-15 6.714844-15 15v37.339844h-27.648438c-8.285156 0-15 6.714844-15 15s6.714844 15 15 15h305c8.285156 0 15-6.714844 15-15s-6.714844-15-15-15zm-141.652344-52.339844h-21.695312v-170.964844h10.203125c.324219 0 .644531-.03125.96875-.050781.320312.019531.640625.050781.96875.050781h9.554687zm-148.347656-185.964844c0-20.234374 16.460938-36.695312 36.695312-36.695312h201.609376c20.230468 0 36.695312 16.460938 36.695312 36.695312 0 20.234376-16.464844 36.695313-36.695312 36.695313-5.980469 0-10.847657-4.867187-10.847657-10.847656s4.867188-10.847657 10.847657-10.847657c8.285156 0 15-6.71875 15-15 0-8.285156-6.714844-15-15-15h-99.515626c-.324218 0-.644531.027344-.96875.046876-.320312-.019532-.640624-.046876-.96875-.046876h-100.15625c-8.285156 0-15 6.714844-15 15 0 8.28125 6.714844 15 15 15 5.980469 0 10.847657 4.863282 10.847657 10.847657 0 5.980469-4.867188 10.847656-10.847657 10.847656-20.234374 0-36.695312-16.460937-36.695312-36.695313zm77.542969 15h19.109375v170.960938h-19.109375zm-34.894531 200.964844h189.703124v22.339844h-189.703124zm0 0" fill="#fff"/></svg>