<svg height="418pt" viewBox="0 0 418 418.41701" width="418pt" xmlns="http://www.w3.org/2000/svg"><path d="m28.074219 390.132812c-3.847657 0-6.964844-3.117187-6.964844-6.964843v-348.335938c0-3.847656 3.117187-6.964843 6.964844-6.964843 3.847656 0 6.96875 3.117187 6.96875 6.964843v348.335938c0 3.847656-3.121094 6.964843-6.96875 6.964843zm0 0" fill="#ff5e5b"/><path d="m21.109375 111.464844h13.933594v27.867187h-13.933594zm0 0" fill="#eb120d"/><path d="m188.308594 125.402344h-139.332032c-3.847656 0-6.96875-3.121094-6.96875-6.96875s3.117188-6.96875 6.96875-6.96875h139.332032c3.847656 0 6.96875 3.121094 6.96875 6.96875s-3.121094 6.96875-6.96875 6.96875zm0 0" fill="#ff5e5b"/><path d="m14.140625 104.5h27.867187c3.847657 0 6.96875 3.121094 6.96875 6.96875v13.933594c0 3.84375-3.121093 6.964844-6.96875 6.964844h-27.867187c-3.847656 0-6.964844-3.117188-6.964844-6.964844v-13.933594c0-3.847656 3.117188-6.96875 6.964844-6.96875zm0 0" fill="#649454"/><path d="m167.410156 145.246094v-61.644532h-69.667968v61.644532c-33.320313 19.238281-44.738282 61.847656-25.5 95.167968 19.238281 33.320313 61.84375 44.738282 95.167968 25.5 33.320313-19.238281 44.734375-61.84375 25.496094-95.167968-6.113281-10.589844-14.90625-19.382813-25.496094-25.5zm0 0" fill="#c2d197"/><path d="m163.925781 151.273438-3.484375-2.011719-55.734375-9.925781v9.925781l-3.484375 2.011719c-29.988281 17.316406-40.261718 55.664062-22.949218 85.652343s55.660156 40.261719 85.652343 22.949219c29.988281-17.3125 40.261719-55.660156 22.949219-85.648438-5.503906-9.535156-13.417969-17.449218-22.949219-22.953124zm0 0" fill="#9cb16a"/><path d="m139.542969 257.765625c-34.472657.164063-62.550781-27.652344-62.710938-62.128906-.050781-10.40625 2.503907-20.660157 7.429688-29.828125-21.964844 26.699218-18.125 66.152344 8.578125 88.117187 26.703125 21.960938 66.152344 18.121094 88.117187-8.582031 2.671875-3.246094 5.007813-6.753906 6.972657-10.46875-11.890626 14.488281-29.644532 22.886719-48.386719 22.890625zm0 0" fill="#649454"/><path d="m90.777344 55.734375h83.597656c3.847656 0 6.96875 3.117187 6.96875 6.964844v13.933593c0 3.847657-3.121094 6.96875-6.96875 6.96875h-83.597656c-3.847656 0-6.96875-3.121093-6.96875-6.96875v-13.933593c0-3.847657 3.117187-6.964844 6.96875-6.964844zm0 0" fill="#c2d197"/><g fill="#ff5e5b"><path d="m167.410156 215.964844c0 7.695312-6.238281 13.933594-13.933594 13.933594-7.695312 0-13.933593-6.238282-13.933593-13.933594 0-7.691406 6.238281-13.929688 13.933593-13.929688 7.695313 0 13.933594 6.238282 13.933594 13.929688zm0 0"/><path d="m118.640625 236.867188c0 3.847656-3.117187 6.964843-6.964844 6.964843-3.847656 0-6.96875-3.117187-6.96875-6.964843 0-3.847657 3.121094-6.96875 6.96875-6.96875 3.847657 0 6.964844 3.121093 6.964844 6.96875zm0 0"/><path d="m97.742188 209c0 3.847656-3.117188 6.96875-6.964844 6.96875s-6.96875-3.121094-6.96875-6.96875 3.121094-6.964844 6.96875-6.964844 6.964844 3.117188 6.964844 6.964844zm0 0"/><path d="m125.609375 188.101562c0 3.847657-3.121094 6.964844-6.96875 6.964844s-6.964844-3.117187-6.964844-6.964844c0-3.847656 3.117188-6.96875 6.964844-6.96875s6.96875 3.121094 6.96875 6.96875zm0 0"/></g><path d="m156.957031 226.417969c-7.695312-.015625-13.921875-6.261719-13.910156-13.957031.007813-2.832032.871094-5.59375 2.488281-7.917969-6.351562 4.34375-7.976562 13.015625-3.632812 19.367187 4.347656 6.351563 13.019531 7.976563 19.371094 3.628906 1.421874-.972656 2.652343-2.203124 3.628906-3.628906-2.328125 1.632813-5.101563 2.507813-7.945313 2.507813zm0 0" fill="#eb120d"/><path d="m115.160156 240.351562c-3.824218.019532-6.945312-3.0625-6.96875-6.886718-.003906-1.011719.210938-2.011719.632813-2.929688-3.519531 1.546875-5.125 5.65625-3.574219 9.179688 1.546875 3.523437 5.65625 5.125 9.179688 3.578125 1.597656-.703125 2.875-1.984375 3.578124-3.582031-.890624.414062-1.863281.632812-2.847656.640624zm0 0" fill="#eb120d"/><path d="m94.257812 212.484375c-3.824218.023437-6.941406-3.058594-6.964843-6.882813-.007813-1.015624.210937-2.015624.632812-2.933593-3.523437 1.546875-5.125 5.65625-3.578125 9.179687 1.546875 3.523438 5.65625 5.125 9.179688 3.578125 1.601562-.703125 2.878906-1.980469 3.578125-3.582031-.890625.414062-1.863281.632812-2.847657.640625zm0 0" fill="#eb120d"/><path d="m122.125 191.582031c-3.824219.023438-6.941406-3.058593-6.964844-6.882812-.003906-1.011719.210938-2.011719.632813-2.933594-3.523438 1.550781-5.125 5.660156-3.578125 9.183594 1.546875 3.519531 5.65625 5.125 9.179687 3.574219 1.601563-.699219 2.878907-1.980469 3.582031-3.582032-.894531.417969-1.867187.636719-2.851562.640625zm0 0" fill="#eb120d"/><path d="m97.742188 83.601562h69.667968v6.964844h-69.667968zm0 0" fill="#9cb16a"/><path d="m257.976562 174.167969c-3.847656 0-6.96875-3.121094-6.96875-6.96875v-118.433594c-.023437-19.226563-15.605468-34.808594-34.832031-34.832031h-41.800781c-19.226562.023437-34.808594 15.605468-34.832031 34.832031v104.5c0 3.847656-3.121094 6.96875-6.96875 6.96875-3.847657 0-6.964844-3.121094-6.964844-6.96875v-104.5c.03125-26.917969 21.847656-48.734375 48.765625-48.765625h41.800781c26.921875.03125 48.734375 21.847656 48.765625 48.765625v118.433594c0 3.847656-3.117187 6.96875-6.964844 6.96875zm0 0" fill="#ff5e5b"/><path d="m125.609375 55.734375v94.996094c0 5.246093 3.121094 9.503906 6.964844 9.503906 3.847656 0 6.96875-4.257813 6.96875-9.503906v-94.996094zm0 0" fill="#eb120d"/><path d="m125.609375 83.601562h13.933594v6.964844h-13.933594zm0 0" fill="#9e0c09"/><path d="m341.574219 90.566406h55.734375v167.199219c0 15.390625-12.476563 27.867187-27.867188 27.867187s-27.863281-12.476562-27.863281-27.867187v-167.199219zm0 0" fill="#ff5e5b"/><path d="m369.441406 278.667969c-11.542968 0-20.898437-9.359375-20.898437-20.902344v-125.398437l41.800781 13.933593v111.464844c0 11.542969-9.359375 20.902344-20.902344 20.902344zm0 0" fill="#eb120d"/><path d="m341.574219 90.566406h55.734375v6.96875h-55.734375zm0 0" fill="#9e0c09"/><path d="m334.609375 62.699219h69.664063c3.847656 0 6.96875 3.121093 6.96875 6.96875v13.933593c0 3.84375-3.117188 6.964844-6.96875 6.964844h-69.664063c-3.847656 0-6.96875-3.117187-6.96875-6.964844v-13.933593c0-3.847657 3.121094-6.96875 6.96875-6.96875zm0 0" fill="#ff5e5b"/><path d="m369.441406 271.699219c-11.542968 0-20.898437-9.355469-20.898437-20.898438v6.964844c0 11.542969 9.355469 20.902344 20.898437 20.902344 11.542969 0 20.902344-9.359375 20.902344-20.902344v-6.964844c0 11.542969-9.359375 20.898438-20.902344 20.898438zm0 0" fill="#9e0c09"/><path d="m376.410156 215.964844c0 3.847656-3.121094 6.96875-6.96875 6.96875s-6.964844-3.121094-6.964844-6.96875 3.117188-6.964844 6.964844-6.964844 6.96875 3.117188 6.96875 6.964844zm0 0" fill="#c2d197"/><path d="m376.410156 243.832031c0 3.851563-3.121094 6.96875-6.96875 6.96875s-6.964844-3.117187-6.964844-6.96875c0-3.847656 3.117188-6.964843 6.964844-6.964843s6.96875 3.117187 6.96875 6.964843zm0 0" fill="#c2d197"/><path d="m369.441406 219.449219c-3.140625-.023438-5.863281-2.175781-6.617187-5.222657-1.203125 3.652344.789062 7.589844 4.441406 8.792969 3.65625 1.199219 7.59375-.789062 8.792969-4.445312.464844-1.410157.464844-2.9375 0-4.347657-.75 3.046876-3.476563 5.199219-6.617188 5.222657zm0 0" fill="#9cb16a"/><path d="m369.441406 247.316406c-3.140625-.023437-5.863281-2.175781-6.617187-5.222656-1.203125 3.652344.789062 7.589844 4.441406 8.792969 3.65625 1.199219 7.59375-.789063 8.792969-4.445313.464844-1.410156.464844-2.9375 0-4.347656-.75 3.046875-3.476563 5.199219-6.617188 5.222656zm0 0" fill="#9cb16a"/><path d="m369.441406 188.101562c-3.847656 0-6.964844-3.121093-6.964844-6.96875v-125.398437c0-15.390625-12.476562-27.867187-27.867187-27.867187h-13.933594c-15.390625 0-27.867187 12.476562-27.867187 27.867187v111.464844c0 3.847656-3.117188 6.96875-6.964844 6.96875s-6.96875-3.121094-6.96875-6.96875v-111.464844c.023438-23.078125 18.722656-41.777344 41.800781-41.800781h13.933594c23.074219.023437 41.777344 18.722656 41.800781 41.800781v125.398437c0 3.847657-3.121094 6.96875-6.96875 6.96875zm0 0" fill="#c2d197"/><path d="m362.476562 62.699219v118.433593c0 3.847657 3.117188 6.96875 6.964844 6.96875s6.96875-3.121093 6.96875-6.96875v-118.433593zm0 0" fill="#9cb16a"/><path d="m303.257812 306.535156v-111.46875h-62.699218v111.46875l-47.21875 94.4375c-1.710938 3.449219-.300782 7.628906 3.148437 9.335938.953125.472656 2 .722656 3.0625.726562h144.714844c3.84375-.015625 6.953125-3.148437 6.9375-6.996094-.003906-1.0625-.253906-2.113281-.726563-3.066406zm0 0" fill="#c2d197"/><path d="m240.558594 195.066406h62.699218v6.96875h-62.699218zm0 0" fill="#649454"/><path d="m199.550781 404.066406 47.976563-95.886718v-106.144532h48.765625v106.144532l47.945312 95.886718zm0 0" fill="#9cb16a"/><path d="m199.550781 404.066406h144.6875l-3.484375-6.964844h-137.710937zm0 0" fill="#649454"/><path d="m296.292969 257.765625v-62.699219h-48.765625v83.601563zm0 0" fill="#ff5e5b"/><path d="m247.527344 195.066406h48.765625v6.96875h-48.765625zm0 0" fill="#9e0c09"/><path d="m237.074219 167.199219h69.667969c3.847656 0 6.96875 3.121093 6.96875 6.96875v13.933593c0 3.847657-3.121094 6.964844-6.96875 6.964844h-69.667969c-3.847657 0-6.964844-3.117187-6.964844-6.964844v-13.933593c0-3.847657 3.117187-6.96875 6.964844-6.96875zm0 0" fill="#9cb16a"/><path d="m299.773438 369.234375c0 7.695313-6.238282 13.933594-13.929688 13.933594-7.695312 0-13.933594-6.238281-13.933594-13.933594s6.238282-13.933594 13.933594-13.933594c7.691406 0 13.929688 6.238281 13.929688 13.933594zm0 0" fill="#ff5e5b"/><path d="m271.910156 334.398438c0 3.847656-3.121094 6.96875-6.96875 6.96875s-6.96875-3.121094-6.96875-6.96875c0-3.847657 3.121094-6.964844 6.96875-6.964844s6.96875 3.117187 6.96875 6.964844zm0 0" fill="#ff5e5b"/><path d="m244.042969 383.167969c0 3.847656-3.121094 6.964843-6.96875 6.964843-3.847657 0-6.964844-3.117187-6.964844-6.964843 0-3.847657 3.117187-6.96875 6.964844-6.96875 3.847656 0 6.96875 3.121093 6.96875 6.96875zm0 0" fill="#ff5e5b"/><path d="m285.84375 376.199219c-6.335938-.023438-11.855469-4.316407-13.441406-10.449219-.3125 1.136719-.480469 2.304688-.492188 3.484375 0 7.695313 6.238282 13.933594 13.933594 13.933594s13.929688-6.238281 13.929688-13.933594c-.011719-1.179687-.179688-2.347656-.492188-3.484375-1.585938 6.132812-7.105469 10.425781-13.4375 10.449219zm0 0" fill="#eb120d"/><path d="m264.941406 334.398438c-2.445312-.027344-4.695312-1.351563-5.902344-3.480469-.664062 1.042969-1.03125 2.246093-1.066406 3.480469 0 3.847656 3.121094 6.96875 6.96875 6.96875s6.96875-3.117188 6.96875-6.96875c-.035156-1.234376-.402344-2.4375-1.066406-3.480469-1.207031 2.128906-3.453125 3.453125-5.902344 3.480469zm0 0" fill="#eb120d"/><path d="m237.074219 383.167969c-2.445313-.027344-4.691407-1.355469-5.898438-3.484375-.667969 1.042968-1.035156 2.246094-1.066406 3.484375 0 3.847656 3.117187 6.964843 6.964844 6.964843 3.847656 0 6.96875-3.117187 6.96875-6.964843-.03125-1.238281-.402344-2.441407-1.066407-3.484375-1.207031 2.128906-3.453124 3.457031-5.902343 3.484375zm0 0" fill="#eb120d"/><path d="m362.476562 62.699219h13.933594v34.832031h-13.933594zm0 0" fill="#649454"/><path d="m362.476562 90.566406h13.933594v6.96875h-13.933594zm0 0" fill="#075057"/><path d="m14.140625 383.167969h90.566406c3.847657 0 6.96875 3.117187 6.96875 6.964843v13.933594c0 3.847656-3.117187 6.96875-6.96875 6.96875h-90.566406c-3.847656 0-6.964844-3.121094-6.964844-6.96875v-13.933594c0-3.847656 3.117188-6.964843 6.964844-6.964843zm0 0" fill="#649454"/><path d="m132.574219 215.964844c0 11.542968 9.359375 20.902344 20.902343 20.902344 11.542969 0 20.898438-9.359376 20.898438-20.902344 0-11.539063-9.355469-20.898438-20.898438-20.898438-11.542968 0-20.902343 9.359375-20.902343 20.898438zm27.867187 0c0 3.847656-3.117187 6.96875-6.964844 6.96875-3.847656 0-6.96875-3.117188-6.96875-6.96875 0-3.847656 3.121094-6.964844 6.96875-6.964844 3.847657 0 6.964844 3.121094 6.964844 6.964844zm0 0"/><path d="m118.640625 236.867188c0 3.847656-3.117187 6.964843-6.964844 6.964843-3.847656 0-6.96875-3.117187-6.96875-6.964843 0-3.847657 3.121094-6.96875 6.96875-6.96875 3.847657 0 6.964844 3.121093 6.964844 6.96875zm0 0"/><path d="m97.742188 209c0 3.847656-3.117188 6.96875-6.964844 6.96875s-6.96875-3.121094-6.96875-6.96875 3.121094-6.964844 6.96875-6.964844 6.964844 3.117188 6.964844 6.964844zm0 0"/><path d="m125.609375 188.101562c0 3.847657-3.121094 6.964844-6.96875 6.964844s-6.964844-3.117187-6.964844-6.964844c0-3.847656 3.117188-6.96875 6.964844-6.96875s6.96875 3.121094 6.96875 6.96875zm0 0"/><path d="m285.84375 348.335938c-11.542969 0-20.902344 9.355468-20.902344 20.898437s9.359375 20.898437 20.902344 20.898437c11.539062 0 20.898438-9.355468 20.898438-20.898437s-9.359376-20.898437-20.898438-20.898437zm0 27.863281c-3.847656 0-6.96875-3.117188-6.96875-6.964844s3.117188-6.96875 6.96875-6.96875c3.84375 0 6.964844 3.121094 6.964844 6.96875s-3.117188 6.964844-6.964844 6.964844zm0 0"/><path d="m271.910156 334.398438c0 3.847656-3.121094 6.96875-6.96875 6.96875s-6.96875-3.121094-6.96875-6.96875c0-3.847657 3.121094-6.964844 6.96875-6.964844s6.96875 3.117187 6.96875 6.964844zm0 0"/><path d="m244.042969 383.167969c0 3.847656-3.121094 6.964843-6.96875 6.964843-3.847657 0-6.964844-3.117187-6.964844-6.964843 0-3.847657 3.117187-6.96875 6.964844-6.96875 3.847656 0 6.96875 3.121093 6.96875 6.96875zm0 0"/><path d="m278.875 271.699219c0 3.847656-3.117188 6.96875-6.964844 6.96875s-6.96875-3.121094-6.96875-6.96875c0-3.847657 3.121094-6.964844 6.96875-6.964844s6.964844 3.117187 6.964844 6.964844zm0 0"/><path d="m278.875 243.832031c0 3.851563-3.117188 6.96875-6.964844 6.96875s-6.96875-3.117187-6.96875-6.96875c0-3.847656 3.121094-6.964843 6.96875-6.964843s6.964844 3.117187 6.964844 6.964843zm0 0"/><path d="m418.207031 76.632812c0-11.542968-9.355469-20.898437-20.898437-20.898437h-20.902344c-.019531-23.078125-18.722656-41.777344-41.796875-41.800781h-13.933594c-23.074219.027344-41.773437 18.726562-41.800781 41.800781v104.5h-13.933594v-111.46875c-.03125-26.917969-21.847656-48.734375-48.765625-48.765625h-41.800781c-26.917969.03125-48.734375 21.847656-48.765625 48.765625h-27.867187c-11.515626-.019531-20.871094 9.296875-20.890626 20.8125-.015624 8.859375 5.566407 16.761719 13.925782 19.707031v22.179688h-34.835938v-6.964844c0-3.847656-3.117187-6.96875-6.964844-6.96875h-13.933593v-62.699219c0-3.847656-3.121094-6.964843-6.96875-6.964843-3.847657 0-6.964844 3.117187-6.964844 6.964843v62.699219h-13.933594c-3.847656 0-6.96875 3.121094-6.96875 6.96875v27.867188c0 3.847656 3.121094 6.964843 6.96875 6.964843h13.933594v236.867188h-6.96875c-3.847656 0-6.964844 3.121093-6.964844 6.96875v27.867187c0 3.847656 3.117188 6.964844 6.964844 6.964844h90.566406c11.542969 0 20.902344-9.355469 20.902344-20.898438 0-11.542968-9.359375-20.902343-20.902344-20.902343h-69.664062v-236.867188h13.933593c3.847657 0 6.964844-3.117187 6.964844-6.964843v-6.96875h34.835938v15.960937c-1.429688.925781-2.828125 1.910156-4.179688 2.925781-33.859375 25.394532-40.722656 73.429688-15.328125 107.285156 25.394531 33.859376 73.425781 40.722657 107.285157 15.328126 19.320312-14.488282 30.679687-37.234376 30.65625-61.382813-.074219-25.886719-13.164063-49.996094-34.835938-64.15625v-15.960937h13.933594c3.847656 0 6.96875-3.117188 6.96875-6.964844s-3.121094-6.96875-6.96875-6.96875h-13.933594v-22.179688c10.863281-3.824218 16.566406-15.730468 12.738281-26.59375-2.941406-8.355468-10.84375-13.941406-19.703125-13.925781h-27.867187c.023437-19.226563 15.605469-34.808594 34.832031-34.832031h41.800781c19.226563.023437 34.8125 15.605468 34.832031 34.832031v111.46875h-10.449218c-9.617188 0-17.414063 7.796875-17.414063 17.414063v6.96875c.007813 6.917968 4.109375 13.171874 10.449219 15.941406v104.332031l-41.464844 82.902344c-5.164062 10.296875-1.003906 22.832031 9.292969 27.996093 2.910156 1.457032 6.117187 2.214844 9.371094 2.214844h82.015625c3.847656 0 6.96875-3.121094 6.96875-6.96875s-3.121094-6.96875-6.96875-6.96875h-82.015625c-3.824219 0-6.925781-3.101562-6.921875-6.925781 0-1.074219.246094-2.128906.726562-3.089844l42.234375-84.402343c.46875-.96875.707031-2.035157.695313-3.113282v-104.5h24.382812c3.847656 0 6.96875-3.121094 6.96875-6.96875s-3.121094-6.96875-6.96875-6.96875h-31.347656c-1.925781 0-3.484375-1.558594-3.484375-3.480468v-6.96875c0-1.925782 1.558594-3.484376 3.484375-3.484376h62.699219c1.921875 0 3.484375 1.558594 3.484375 3.484376v6.96875c0 1.921874-1.5625 3.480468-3.484375 3.480468-3.847657 0-6.96875 3.121094-6.96875 6.96875v111.464844c0 1.082031.253906 2.148438.738281 3.117188l42.199219 84.398437c1.703125 3.429687.304687 7.589844-3.121094 9.292969-.957031.476562-2.007813.722656-3.074219.726562-3.847656 0-6.96875 3.117188-6.96875 6.964844 0 3.851562 3.121094 6.96875 6.96875 6.96875 11.519532 0 20.859375-9.335938 20.859375-20.855469 0-3.242187-.753906-6.433593-2.203125-9.332031l-41.464844-82.921875v-104.332031c6.339844-2.769532 10.441407-9.023438 10.449219-15.941406v-6.96875c0-9.617188-7.796875-17.414063-17.417969-17.414063h-10.449218v-104.5c0-15.390625 12.476562-27.867187 27.867187-27.867187h13.933594c15.390625 0 27.867187 12.476562 27.867187 27.867187h-20.902343c-11.515625-.023437-20.867188 9.296875-20.890625 20.8125-.015625 8.859375 5.570312 16.761719 13.925781 19.703125v161.515625c0 19.238281 15.59375 34.835937 34.832031 34.835937 19.238282 0 34.835938-15.597656 34.835938-34.835937v-161.515625c8.320312-2.941406 13.894531-10.789062 13.929687-19.617188zm-306.53125 320.46875c0 3.847657-3.121093 6.964844-6.96875 6.964844h-83.597656v-13.933594h83.597656c3.847657 0 6.96875 3.121094 6.96875 6.96875zm-69.667969-271.699218h-27.867187v-13.933594h27.867187zm55.734376-62.703125h27.867187v13.933593h-27.867187c-3.847657 0-6.96875-3.117187-6.96875-6.964843 0-3.847657 3.121093-6.96875 6.96875-6.96875zm6.964843 27.867187h20.902344v20.902344h-20.902344zm59.21875 60.707032c29.988281 17.316406 40.261719 55.664062 22.949219 85.652343s-55.660156 40.261719-85.648438 22.949219c-19.417968-11.210938-31.371093-31.9375-31.351562-54.355469.046875-22.375 11.988281-43.035156 31.351562-54.242187 2.152344-1.246094 3.480469-3.542969 3.480469-6.027344v-19.847656h20.902344v27.867187c0 3.84375 3.117187 6.964844 6.964844 6.964844 3.851562 0 6.96875-3.117187 6.96875-6.964844v-27.867187h20.902343v19.847656c0 2.484375 1.328126 4.78125 3.480469 6.023438zm-24.382812-39.808594v-20.898438h20.898437v20.902344h-20.898437zm27.867187-48.765625c3.84375 0 6.964844 3.121093 6.964844 6.96875 0 3.847656-3.117188 6.964843-6.964844 6.964843h-27.867187v-13.933593zm174.164063 6.96875h20.902343v13.933593h-20.902343c-3.847657 0-6.964844-3.121093-6.964844-6.96875 0-3.847656 3.117187-6.964843 6.964844-6.964843zm27.867187 209c-11.542968 0-20.898437-9.359375-20.898437-20.902344v-160.234375h13.933593v83.601562c0 3.847657 3.117188 6.96875 6.964844 6.96875s6.96875-3.121093 6.96875-6.96875v-83.601562h13.933594v160.234375c0 11.542969-9.359375 20.902344-20.902344 20.902344zm27.867188-195.066407h-20.898438v-13.933593h20.898438c3.847656 0 6.96875 3.117187 6.96875 6.964843-.003906 3.847657-3.121094 6.96875-6.96875 6.96875zm0 0"/><path d="m376.410156 215.964844c0 3.847656-3.121094 6.96875-6.96875 6.96875s-6.964844-3.121094-6.964844-6.96875 3.117188-6.964844 6.964844-6.964844 6.96875 3.117188 6.96875 6.964844zm0 0"/><path d="m376.410156 243.832031c0 3.851563-3.121094 6.96875-6.96875 6.96875s-6.964844-3.117187-6.964844-6.96875c0-3.847656 3.117188-6.964843 6.964844-6.964843s6.96875 3.117187 6.96875 6.964843zm0 0"/></svg>